# This file uses centimeters as units for non-parametric coordinates.

mtllib Blumentopf_3Attempt.mtl
g default
v 4.473884 0.095914 -1.453653
v 3.805714 0.095914 -2.765013
v 2.765013 0.095914 -3.805714
v 1.453653 0.095914 -4.473884
v 0.000000 0.095914 -4.704120
v -1.453653 0.095914 -4.473884
v -2.765012 0.095914 -3.805712
v -3.805712 0.095914 -2.765012
v -4.473883 0.095914 -1.453652
v -4.704118 0.095914 0.000000
v -4.473883 0.095914 1.453652
v -3.805712 0.095914 2.765011
v -2.765011 0.095914 3.805712
v -1.453652 0.095914 4.473882
v -0.000000 0.095914 4.704118
v 1.453652 0.095914 4.473882
v 2.765011 0.095914 3.805712
v 3.805711 0.095914 2.765011
v 4.473882 0.095914 1.453652
v 4.704117 0.095914 0.000000
v 5.187989 9.504149 -1.685680
v 4.413168 9.504149 -3.206353
v 3.206354 9.504149 -4.413167
v 1.685680 9.504149 -5.187988
v 0.000000 9.504149 -5.454974
v -1.685680 9.504149 -5.187988
v -3.206353 9.504149 -4.413166
v -4.413166 9.504149 -3.206352
v -5.187988 9.504149 -1.685679
v -5.454972 9.504149 0.000000
v -5.187988 9.504149 1.685679
v -4.413166 9.504149 3.206352
v -3.206352 9.504149 4.413166
v -1.685679 9.504149 5.187987
v -0.000000 9.504149 5.454971
v 1.685679 9.504149 5.187986
v 3.206352 9.504149 4.413165
v 4.413164 9.504149 3.206352
v 5.187986 9.504149 1.685679
v 5.454971 9.504149 0.000000
v 0.000000 0.095914 0.000000
v 2.236942 0.095914 -0.726827
v 2.355799 0.095914 -1.711588
v 1.382506 0.095914 -1.902857
v 0.899835 0.095914 -2.769407
v 0.000000 0.095914 -2.352060
v -0.899835 0.095914 -2.769407
v -1.382506 0.095914 -1.902856
v -2.355798 0.095914 -1.711587
v -2.236942 0.095914 -0.726826
v -2.911926 0.095914 0.000000
v -2.236942 0.095914 0.726826
v -2.355798 0.095914 1.711587
v -1.382506 0.095914 1.902856
v -0.899835 0.095914 2.769407
v -0.000000 0.095914 2.352059
v 0.899835 0.095914 2.769406
v 1.382506 0.095914 1.902856
v 2.355797 0.095914 1.711587
v 2.236941 0.095914 0.726826
v 2.911925 0.095914 0.000000
v 4.619512 9.504149 -1.500970
v 3.929591 9.504149 -2.855014
v 2.855015 9.504149 -3.929590
v 1.500970 9.504149 -4.619509
v 0.000000 9.504149 -4.857240
v -1.500970 9.504149 -4.619509
v -2.855014 9.504149 -3.929589
v -3.929589 9.504149 -2.855013
v -4.619508 9.504149 -1.500969
v -4.857238 9.504149 0.000001
v -4.619508 9.504149 1.500970
v -3.929589 9.504149 2.855014
v -2.855014 9.504149 3.929589
v -1.500969 9.504149 4.619510
v 0.000000 9.504149 4.857240
v 1.500970 9.504149 4.619509
v 2.855013 9.504149 3.929589
v 3.929589 9.504149 2.855014
v 4.619508 9.504149 1.500970
v 4.857238 9.504149 0.000001
v 3.983655 0.602225 -1.294368
v 0.000000 0.602225 0.000000
v 3.388700 0.602225 -2.462034
v 2.462034 0.602225 -3.388699
v 1.294368 0.602225 -3.983654
v 0.000000 0.602225 -4.188662
v -1.294367 0.602225 -3.983654
v -2.462033 0.602225 -3.388698
v -3.388698 0.602225 -2.462033
v -3.983654 0.602225 -1.294367
v -4.188661 0.602225 0.000000
v -3.983654 0.602224 1.294368
v -3.388698 0.602223 2.462033
v -2.462033 0.602224 3.388699
v -1.294367 0.602225 3.983655
v 0.000000 0.602225 4.188663
v 1.294367 0.602225 3.983655
v 2.462033 0.602225 3.388699
v 3.388698 0.602225 2.462033
v 3.983652 0.602225 1.294367
v 4.188661 0.602225 0.000000
v 4.619512 11.023941 -1.500970
v 4.857238 11.023941 0.000000
v 3.929591 11.023941 -2.855014
v 2.855015 11.023941 -3.929590
v 1.500970 11.023941 -4.619509
v 0.000000 11.023941 -4.857240
v -1.500970 11.023941 -4.619509
v -2.855014 11.023941 -3.929589
v -3.929589 11.023941 -2.855013
v -4.619508 11.023941 -1.500969
v -4.857238 11.023941 0.000000
v -4.619508 11.023941 1.500970
v -3.929589 11.023941 2.855013
v -2.855014 11.023941 3.929589
v -1.500969 11.023941 4.619511
v 0.000000 11.023941 4.857240
v 1.500970 11.023941 4.619509
v 2.855013 11.023941 3.929589
v 3.929589 11.023941 2.855014
v 4.619508 11.023941 1.500970
v 6.475104 9.504149 0.000001
v 6.158193 9.504149 -2.000917
v 6.158193 11.023941 -2.000917
v 6.475104 11.023941 0.000001
v 5.238471 9.504149 -3.805972
v 5.238471 11.023941 -3.805972
v 3.805972 9.504149 -5.238471
v 3.805972 11.023941 -5.238471
v 2.000918 9.504149 -6.158192
v 2.000918 11.023941 -6.158192
v 0.000000 9.504149 -6.475106
v 0.000000 11.023941 -6.475106
v -2.000918 9.504149 -6.158191
v -2.000918 11.023941 -6.158191
v -3.805971 9.504149 -5.238469
v -3.805971 11.023941 -5.238469
v -5.238470 9.504149 -3.805971
v -5.238470 11.023941 -3.805971
v -6.158191 9.504149 -2.000917
v -6.158191 11.023941 -2.000917
v -6.475104 9.504149 0.000000
v -6.475104 11.023941 0.000000
v -6.158191 9.504149 2.000917
v -6.158191 11.023941 2.000917
v -5.238469 9.504149 3.805971
v -5.238469 11.023941 3.805970
v -3.805970 9.504149 5.238469
v -3.805970 11.023941 5.238469
v -2.000917 9.504148 6.158190
v -2.000917 11.023941 6.158191
v 0.000000 9.504148 6.475104
v 0.000000 11.023941 6.475104
v 2.000917 9.504149 6.158189
v 2.000917 11.023941 6.158189
v 3.805970 9.504149 5.238469
v 3.805970 11.023941 5.238468
v 5.238468 9.504149 3.805970
v 5.238468 11.023941 3.805970
v 6.158189 9.504149 2.000917
v 6.158189 11.023941 2.000917
vt 0.648603 0.107966
vt 0.626409 0.064408
vt 0.591842 0.029841
vt 0.548284 0.007647
vt 0.500000 -0.000000
vt 0.451716 0.007647
vt 0.408159 0.029841
vt 0.373591 0.064409
vt 0.351397 0.107966
vt 0.343750 0.156250
vt 0.351397 0.204534
vt 0.373591 0.248091
vt 0.408159 0.282659
vt 0.451716 0.304853
vt 0.500000 0.312500
vt 0.548284 0.304853
vt 0.591841 0.282659
vt 0.626409 0.248091
vt 0.648603 0.204534
vt 0.656250 0.156250
vt 0.375000 0.312500
vt 0.387500 0.312500
vt 0.400000 0.312500
vt 0.412500 0.312500
vt 0.425000 0.312500
vt 0.437500 0.312500
vt 0.450000 0.312500
vt 0.462500 0.312500
vt 0.475000 0.312500
vt 0.487500 0.312500
vt 0.500000 0.312500
vt 0.512500 0.312500
vt 0.525000 0.312500
vt 0.537500 0.312500
vt 0.550000 0.312500
vt 0.562500 0.312500
vt 0.575000 0.312500
vt 0.587500 0.312500
vt 0.600000 0.312500
vt 0.612500 0.312500
vt 0.625000 0.312500
vt 0.375000 0.687500
vt 0.387500 0.687500
vt 0.400000 0.687500
vt 0.412500 0.687500
vt 0.425000 0.687500
vt 0.437500 0.687500
vt 0.450000 0.687500
vt 0.462500 0.687500
vt 0.475000 0.687500
vt 0.487500 0.687500
vt 0.500000 0.687500
vt 0.512500 0.687500
vt 0.525000 0.687500
vt 0.537500 0.687500
vt 0.550000 0.687500
vt 0.562500 0.687500
vt 0.575000 0.687500
vt 0.587500 0.687500
vt 0.600000 0.687500
vt 0.612500 0.687500
vt 0.625000 0.687500
vt 0.648603 0.795466
vt 0.626409 0.751908
vt 0.591842 0.717341
vt 0.548284 0.695147
vt 0.500000 0.687500
vt 0.451716 0.695147
vt 0.408159 0.717341
vt 0.373591 0.751909
vt 0.351397 0.795466
vt 0.343750 0.843750
vt 0.351397 0.892034
vt 0.373591 0.935591
vt 0.408159 0.970159
vt 0.451716 0.992353
vt 0.500000 1.000000
vt 0.548284 0.992353
vt 0.591841 0.970159
vt 0.626409 0.935591
vt 0.648603 0.892034
vt 0.656250 0.843750
vt 0.500000 0.156250
vt 0.500000 0.843750
vt 0.574301 0.132108
vt 0.563205 0.110329
vt 0.545921 0.093046
vt 0.524142 0.081949
vt 0.500000 0.078125
vt 0.475858 0.081949
vt 0.454079 0.093046
vt 0.436796 0.110329
vt 0.425699 0.132108
vt 0.421875 0.156250
vt 0.425699 0.180392
vt 0.436796 0.202171
vt 0.454079 0.219454
vt 0.475858 0.230551
vt 0.500000 0.234375
vt 0.524142 0.230551
vt 0.545921 0.219454
vt 0.563204 0.202171
vt 0.574301 0.180392
vt 0.578125 0.156250
vt 0.574301 0.867892
vt 0.563204 0.889671
vt 0.545921 0.906954
vt 0.524142 0.918051
vt 0.500000 0.921875
vt 0.475858 0.918051
vt 0.454079 0.906954
vt 0.436796 0.889671
vt 0.425699 0.867892
vt 0.421875 0.843750
vt 0.425699 0.819608
vt 0.436796 0.797829
vt 0.454079 0.780546
vt 0.475858 0.769449
vt 0.500000 0.765625
vt 0.524142 0.769449
vt 0.545921 0.780545
vt 0.563205 0.797829
vt 0.574301 0.819608
vt 0.578125 0.843750
vt 0.574301 0.867892
vt 0.563204 0.889671
vt 0.545921 0.906954
vt 0.524142 0.918051
vt 0.500000 0.921875
vt 0.475858 0.918051
vt 0.454079 0.906954
vt 0.436796 0.889671
vt 0.425699 0.867892
vt 0.421875 0.843750
vt 0.425699 0.819608
vt 0.436796 0.797829
vt 0.454079 0.780546
vt 0.475858 0.769449
vt 0.500000 0.765625
vt 0.524142 0.769449
vt 0.545921 0.780545
vt 0.563205 0.797829
vt 0.574301 0.819608
vt 0.578125 0.843750
vt 0.574301 0.867892
vt 0.578125 0.843750
vt 0.563204 0.889671
vt 0.545921 0.906954
vt 0.524142 0.918051
vt 0.500000 0.921875
vt 0.475858 0.918051
vt 0.454079 0.906954
vt 0.436796 0.889671
vt 0.425699 0.867892
vt 0.421875 0.843750
vt 0.425699 0.819608
vt 0.436796 0.797829
vt 0.454079 0.780546
vt 0.475858 0.769449
vt 0.500000 0.765625
vt 0.524142 0.769449
vt 0.545921 0.780545
vt 0.563205 0.797829
vt 0.574301 0.819608
vt 0.656250 0.843750
vt 0.648603 0.892034
vt 0.648603 0.892034
vt 0.656250 0.843750
vt 0.626409 0.935591
vt 0.626409 0.935591
vt 0.591841 0.970159
vt 0.591841 0.970159
vt 0.548284 0.992353
vt 0.548284 0.992353
vt 0.500000 1.000000
vt 0.500000 1.000000
vt 0.451716 0.992353
vt 0.451716 0.992353
vt 0.408159 0.970159
vt 0.408159 0.970159
vt 0.373591 0.935591
vt 0.373591 0.935591
vt 0.351397 0.892034
vt 0.351397 0.892034
vt 0.343750 0.843750
vt 0.343750 0.843750
vt 0.351397 0.795466
vt 0.351397 0.795466
vt 0.373591 0.751909
vt 0.373591 0.751909
vt 0.408159 0.717341
vt 0.408159 0.717341
vt 0.451716 0.695147
vt 0.451716 0.695147
vt 0.500000 0.687500
vt 0.500000 0.687500
vt 0.548284 0.695147
vt 0.548284 0.695147
vt 0.591842 0.717341
vt 0.591842 0.717341
vt 0.626409 0.751908
vt 0.626409 0.751908
vt 0.648603 0.795466
vt 0.648603 0.795466
vn 0.928344 -0.217240 -0.301636
vn 0.789696 -0.217240 -0.573748
vn 0.789957 -0.215785 -0.573937
vn 0.928651 -0.215785 -0.301736
vn 0.573748 -0.217240 -0.789696
vn 0.573937 -0.215785 -0.789957
vn 0.301637 -0.217240 -0.928344
vn 0.301737 -0.215785 -0.928651
vn 0.000000 -0.217240 -0.976118
vn 0.000000 -0.215785 -0.976441
vn -0.301637 -0.217240 -0.928343
vn -0.301737 -0.215785 -0.928650
vn -0.573748 -0.217240 -0.789696
vn -0.573938 -0.215785 -0.789957
vn -0.789696 -0.217240 -0.573748
vn -0.789957 -0.215785 -0.573938
vn -0.928344 -0.217240 -0.301637
vn -0.928650 -0.215785 -0.301737
vn -0.976118 -0.217240 -0.000000
vn -0.976441 -0.215785 -0.000000
vn -0.928344 -0.217240 0.301637
vn -0.928650 -0.215785 0.301737
vn -0.789696 -0.217240 0.573748
vn -0.789957 -0.215785 0.573938
vn -0.573748 -0.217240 0.789696
vn -0.573937 -0.215785 0.789957
vn -0.301637 -0.217240 0.928344
vn -0.301737 -0.215785 0.928651
vn 0.000000 -0.217240 0.976118
vn -0.000000 -0.215785 0.976441
vn 0.301637 -0.217240 0.928344
vn 0.301737 -0.215785 0.928651
vn 0.573748 -0.217240 0.789696
vn 0.573938 -0.215785 0.789957
vn 0.789696 -0.217240 0.573748
vn 0.789957 -0.215785 0.573937
vn 0.928344 -0.217240 0.301637
vn 0.928650 -0.215785 0.301737
vn 0.976118 -0.217240 0.000001
vn 0.976441 -0.215785 0.000001
vn 0.000000 -1.000000 0.000000
vn 0.000000 -1.000000 0.000000
vn 0.000000 -1.000000 0.000000
vn 0.000000 -1.000000 0.000000
vn 0.000000 -1.000000 0.000000
vn 0.000000 -1.000000 0.000000
vn 0.000000 -1.000000 0.000000
vn 0.000000 -1.000000 0.000000
vn 0.000000 -1.000000 0.000000
vn 0.000000 -1.000000 -0.000000
vn 0.000000 -1.000000 -0.000000
vn 0.000000 -1.000000 0.000000
vn 0.000000 -1.000000 0.000000
vn 0.000000 -1.000000 0.000000
vn 0.000000 -1.000000 0.000000
vn 0.000000 -1.000000 0.000000
vn 0.000000 -1.000000 0.000000
vn 0.000000 -1.000000 0.000000
vn 0.000000 -1.000000 0.000000
vn 0.000000 -1.000000 0.000000
vn 0.000000 -1.000000 0.000000
vn -0.000000 1.000000 0.000000
vn 0.000000 1.000000 0.000000
vn 0.000000 1.000000 0.000000
vn 0.000000 1.000000 0.000000
vn 0.000000 1.000000 0.000000
vn 0.000000 1.000000 0.000000
vn 0.000000 1.000000 0.000000
vn 0.000000 1.000000 0.000000
vn 0.000000 1.000000 0.000000
vn 0.000000 1.000000 0.000000
vn 0.000000 1.000000 0.000000
vn -0.000000 1.000000 0.000000
vn -0.000000 1.000000 0.000000
vn -0.000000 1.000000 0.000000
vn -0.000000 1.000000 -0.000000
vn -0.000000 1.000000 -0.000000
vn 0.000000 1.000000 -0.000000
vn 0.000000 1.000000 -0.000000
vn 0.000000 1.000000 0.000000
vn 0.000000 1.000000 0.000000
vn 0.000000 1.000000 0.000000
vn 0.000000 1.000000 0.000000
vn 0.000000 1.000000 0.000000
vn 0.000000 1.000000 0.000000
vn 0.000000 1.000000 0.000000
vn 0.000000 1.000000 0.000000
vn 0.000000 1.000000 0.000000
vn 0.000000 1.000000 0.000000
vn 0.000000 1.000000 0.000000
vn 0.000000 1.000000 0.000000
vn 0.000000 1.000000 0.000000
vn 0.000000 1.000000 0.000000
vn 0.000000 1.000000 0.000000
vn 0.000000 1.000000 0.000000
vn 0.000000 1.000000 0.000000
vn 0.000000 1.000000 0.000000
vn 0.000000 1.000000 0.000000
vn 0.000000 1.000000 0.000000
vn 0.000000 1.000000 0.000000
vn 0.000000 1.000000 0.000000
vn 0.000000 1.000000 0.000000
vn 0.000000 1.000000 0.000000
vn 0.000000 1.000000 0.000000
vn 0.000000 1.000000 -0.000000
vn 0.000000 1.000000 -0.000000
vn 0.000000 1.000000 -0.000000
vn 0.000000 1.000000 -0.000000
vn 0.000000 1.000000 0.000000
vn 0.000000 1.000000 0.000000
vn 0.000000 1.000000 0.000000
vn 0.000000 1.000000 0.000000
vn -0.000000 1.000000 0.000000
vn -0.000000 1.000000 0.000000
vn -0.000000 1.000000 -0.000000
vn -0.000000 1.000000 -0.000000
vn 0.000000 1.000000 -0.000000
vn 0.000000 1.000000 -0.000000
vn 0.000000 1.000000 0.000000
vn 0.000000 1.000000 -0.000000
vn 0.000000 1.000000 0.000000
vn 0.000000 1.000000 0.000000
vn -0.949151 0.063268 0.308397
vn -0.807396 0.063268 0.586608
vn -0.806745 0.074894 0.586135
vn -0.948386 0.074894 0.308148
vn -0.586607 0.063268 0.807396
vn -0.586134 0.074894 0.806745
vn -0.308398 0.063268 0.949151
vn -0.308149 0.074894 0.948386
vn -0.000000 0.063268 0.997997
vn 0.000000 0.074894 0.997192
vn 0.308398 0.063268 0.949151
vn 0.308149 0.074894 0.948385
vn 0.586608 0.063268 0.807396
vn 0.586135 0.074894 0.806745
vn 0.807396 0.063267 0.586607
vn 0.806745 0.074894 0.586134
vn 0.949151 0.063267 0.308398
vn 0.948386 0.074894 0.308149
vn 0.997997 0.063267 -0.000000
vn 0.997192 0.074894 -0.000000
vn 0.949151 0.063267 -0.308398
vn 0.948386 0.074894 -0.308149
vn 0.807396 0.063268 -0.586608
vn 0.806745 0.074894 -0.586134
vn 0.586608 0.063267 -0.807396
vn 0.586135 0.074894 -0.806745
vn 0.308398 0.063267 -0.949151
vn 0.308149 0.074894 -0.948385
vn -0.000000 0.063267 -0.997997
vn -0.000000 0.074894 -0.997192
vn -0.308398 0.063267 -0.949151
vn -0.308149 0.074894 -0.948385
vn -0.586608 0.063267 -0.807396
vn -0.586135 0.074894 -0.806745
vn -0.807396 0.063268 -0.586607
vn -0.806745 0.074894 -0.586134
vn -0.949151 0.063268 -0.308398
vn -0.948386 0.074894 -0.308149
vn -0.997997 0.063268 -0.000001
vn -0.997191 0.074894 -0.000001
vn 1.000000 0.000000 0.000001
vn 0.951057 0.000000 -0.309016
vn 0.951057 0.000000 -0.309016
vn 1.000000 0.000000 0.000001
vn -1.000000 -0.000000 -0.000001
vn -0.951057 0.000000 0.309016
vn 0.809017 0.000000 -0.587785
vn 0.809017 0.000000 -0.587785
vn -0.809017 0.000000 0.587785
vn 0.587785 0.000000 -0.809017
vn 0.587785 0.000000 -0.809017
vn -0.587785 0.000000 0.809017
vn 0.309017 0.000000 -0.951057
vn 0.309017 0.000000 -0.951057
vn -0.309017 0.000000 0.951057
vn -0.000000 0.000000 -1.000000
vn -0.000000 0.000000 -1.000000
vn -0.000000 0.000000 1.000000
vn -0.309018 0.000000 -0.951056
vn -0.309018 0.000000 -0.951056
vn 0.309017 -0.000000 0.951056
vn -0.587785 0.000000 -0.809017
vn -0.587785 0.000000 -0.809017
vn 0.587785 -0.000000 0.809017
vn -0.809017 0.000000 -0.587785
vn -0.809017 0.000000 -0.587785
vn 0.809017 -0.000000 0.587785
vn -0.951057 -0.000000 -0.309017
vn -0.951057 -0.000000 -0.309017
vn 0.951057 0.000000 0.309017
vn -1.000000 -0.000000 0.000000
vn -1.000000 -0.000000 -0.000000
vn 1.000000 0.000000 0.000000
vn -0.951056 0.000000 0.309017
vn -0.951056 0.000000 0.309017
vn 0.951057 0.000000 -0.309017
vn -0.809017 0.000000 0.587785
vn -0.809017 0.000000 0.587785
vn 0.809017 -0.000000 -0.587785
vn -0.587785 -0.000000 0.809017
vn -0.587785 -0.000000 0.809017
vn 0.587786 0.000000 -0.809017
vn -0.309017 -0.000000 0.951056
vn -0.309017 -0.000000 0.951057
vn 0.309017 0.000000 -0.951056
vn 0.000000 -0.000000 1.000000
vn 0.000000 -0.000000 1.000000
vn -0.000000 0.000000 -1.000000
vn 0.309017 -0.000000 0.951056
vn 0.309017 -0.000000 0.951056
vn -0.309017 0.000000 -0.951056
vn 0.587785 0.000000 0.809017
vn 0.587785 0.000000 0.809017
vn -0.587785 -0.000000 -0.809017
vn 0.809017 0.000000 0.587785
vn 0.809017 0.000000 0.587785
vn -0.809017 -0.000000 -0.587785
vn 0.951056 0.000000 0.309017
vn 0.951056 0.000000 0.309017
vn -0.951057 -0.000000 -0.309017
vn 0.000000 -1.000000 0.000000
vn 0.000000 -1.000000 0.000000
vn 0.000000 -1.000000 0.000000
vn 0.000000 -1.000000 0.000000
vn 0.000000 -1.000000 0.000000
vn 0.000000 -1.000000 -0.000000
vn 0.000000 -1.000000 -0.000000
vn 0.000000 -1.000000 0.000000
vn 0.000000 -1.000000 0.000000
vn 0.000000 -1.000000 0.000000
vn 0.000000 -1.000000 0.000000
vn 0.000000 -1.000000 0.000000
vn 0.000000 -1.000000 0.000000
vn -0.000000 -1.000000 0.000000
vn 0.000000 -1.000000 -0.000000
vn 0.000000 -1.000000 -0.000000
vn 0.000000 -1.000000 -0.000000
vn 0.000000 -1.000000 0.000000
vn 0.000000 -1.000000 0.000000
vn 0.000000 -1.000000 0.000000
s 1
g pCylinder1
usemtl initialShadingGroup
f 1/21/1 2/22/2 22/43/3 21/42/4
f 2/22/2 3/23/5 23/44/6 22/43/3
f 3/23/5 4/24/7 24/45/8 23/44/6
f 4/24/7 5/25/9 25/46/10 24/45/8
f 5/25/9 6/26/11 26/47/12 25/46/10
f 6/26/11 7/27/13 27/48/14 26/47/12
f 7/27/13 8/28/15 28/49/16 27/48/14
f 8/28/15 9/29/17 29/50/18 28/49/16
f 9/29/17 10/30/19 30/51/20 29/50/18
f 10/30/19 11/31/21 31/52/22 30/51/20
f 11/31/21 12/32/23 32/53/24 31/52/22
f 12/32/23 13/33/25 33/54/26 32/53/24
f 13/33/25 14/34/27 34/55/28 33/54/26
f 14/34/27 15/35/29 35/56/30 34/55/28
f 15/35/29 16/36/31 36/57/32 35/56/30
f 16/36/31 17/37/33 37/58/34 36/57/32
f 17/37/33 18/38/35 38/59/36 37/58/34
f 18/38/35 19/39/37 39/60/38 38/59/36
f 19/39/37 20/40/39 40/61/40 39/60/38
f 20/40/39 1/41/1 21/62/4 40/61/40
f 43/86/41 42/85/42 41/83/43 44/87/44
f 45/88/45 44/87/44 41/83/43 46/89/46
f 47/90/47 46/89/46 41/83/43 48/91/48
f 49/92/49 48/91/48 41/83/43 50/93/50
f 51/94/51 50/93/50 41/83/43 52/95/52
f 53/96/53 52/95/52 41/83/43 54/97/54
f 55/98/55 54/97/54 41/83/43 56/99/56
f 57/100/57 56/99/56 41/83/43 58/101/58
f 59/102/59 58/101/58 41/83/43 60/103/60
f 61/104/61 60/103/60 41/83/43 42/85/42
s 2
f 83/84/62 82/125/63 84/126/64 85/127/65
f 83/84/62 85/127/65 86/128/66 87/129/67
f 83/84/62 87/129/67 88/130/68 89/131/69
f 83/84/62 89/131/69 90/132/70 91/133/71
f 83/84/62 91/133/71 92/134/72 93/135/73
f 83/84/62 93/135/73 94/136/74 95/137/75
f 83/84/62 95/137/75 96/138/76 97/139/77
f 83/84/62 97/139/77 98/140/78 99/141/79
f 83/84/62 99/141/79 100/142/80 101/143/81
f 83/84/62 101/143/81 102/144/82 82/125/63
s 1
f 20/20/39 19/19/37 60/103/60 61/104/61
f 19/19/37 18/18/35 59/102/59 60/103/60
f 18/18/35 17/17/33 58/101/58 59/102/59
f 17/17/33 16/16/31 57/100/57 58/101/58
f 16/16/31 15/15/29 56/99/56 57/100/57
f 15/15/29 14/14/27 55/98/55 56/99/56
f 14/14/27 13/13/25 54/97/54 55/98/55
f 13/13/25 12/12/23 53/96/53 54/97/54
f 12/12/23 11/11/21 52/95/52 53/96/53
f 11/11/21 10/10/19 51/94/51 52/95/52
f 10/10/19 9/9/17 50/93/50 51/94/51
f 9/9/17 8/8/15 49/92/49 50/93/50
f 8/8/15 7/7/13 48/91/48 49/92/49
f 7/7/13 6/6/11 47/90/47 48/91/48
f 6/6/11 5/5/9 46/89/46 47/90/47
f 5/5/9 4/4/7 45/88/45 46/89/46
f 4/4/7 3/3/5 44/87/44 45/88/45
f 3/3/5 2/2/2 43/86/41 44/87/44
f 2/2/2 1/1/1 42/85/42 43/86/41
f 1/1/1 20/20/39 61/104/61 42/85/42
s 3
f 103/145/83 104/146/84 126/168/85 125/167/86
f 105/147/87 103/145/83 125/167/86 128/170/88
f 106/148/89 105/147/87 128/170/88 130/172/90
f 107/149/91 106/148/89 130/172/90 132/174/92
f 108/150/93 107/149/91 132/174/92 134/176/94
f 109/151/95 108/150/93 134/176/94 136/178/96
f 110/152/97 109/151/95 136/178/96 138/180/98
f 111/153/99 110/152/97 138/180/98 140/182/100
f 112/154/101 111/153/99 140/182/100 142/184/102
f 113/155/103 112/154/101 142/184/102 144/186/104
f 114/156/105 113/155/103 144/186/104 146/188/106
f 115/157/107 114/156/105 146/188/106 148/190/108
f 116/158/109 115/157/107 148/190/108 150/192/110
f 117/159/111 116/158/109 150/192/110 152/194/112
f 118/160/113 117/159/111 152/194/112 154/196/114
f 119/161/115 118/160/113 154/196/114 156/198/116
f 120/162/117 119/161/115 156/198/116 158/200/118
f 121/163/119 120/162/117 158/200/118 160/202/120
f 122/164/121 121/163/119 160/202/120 162/204/122
f 104/146/84 122/164/121 162/204/122 126/168/85
s 4
f 62/105/123 63/106/124 84/126/125 82/125/126
f 63/106/124 64/107/127 85/127/128 84/126/125
f 64/107/127 65/108/129 86/128/130 85/127/128
f 65/108/129 66/109/131 87/129/132 86/128/130
f 66/109/131 67/110/133 88/130/134 87/129/132
f 67/110/133 68/111/135 89/131/136 88/130/134
f 68/111/135 69/112/137 90/132/138 89/131/136
f 69/112/137 70/113/139 91/133/140 90/132/138
f 70/113/139 71/114/141 92/134/142 91/133/140
f 71/114/141 72/115/143 93/135/144 92/134/142
f 72/115/143 73/116/145 94/136/146 93/135/144
f 73/116/145 74/117/147 95/137/148 94/136/146
f 74/117/147 75/118/149 96/138/150 95/137/148
f 75/118/149 76/119/151 97/139/152 96/138/150
f 76/119/151 77/120/153 98/140/154 97/139/152
f 77/120/153 78/121/155 99/141/156 98/140/154
f 78/121/155 79/122/157 100/142/158 99/141/156
f 79/122/157 80/123/159 101/143/160 100/142/158
f 80/123/159 81/124/161 102/144/162 101/143/160
f 81/124/161 62/105/123 82/125/126 102/144/162
s 5
f 123/165/163 124/166/164 125/167/165 126/168/166
s 4
f 62/105/123 81/124/161 104/146/167 103/145/168
s 5
f 124/166/164 127/169/169 128/170/170 125/167/165
s 4
f 63/106/124 62/105/123 103/145/168 105/147/171
s 5
f 127/169/169 129/171/172 130/172/173 128/170/170
s 4
f 64/107/127 63/106/124 105/147/171 106/148/174
s 5
f 129/171/172 131/173/175 132/174/176 130/172/173
s 4
f 65/108/129 64/107/127 106/148/174 107/149/177
s 5
f 131/173/175 133/175/178 134/176/179 132/174/176
s 4
f 66/109/131 65/108/129 107/149/177 108/150/180
s 5
f 133/175/178 135/177/181 136/178/182 134/176/179
s 4
f 67/110/133 66/109/131 108/150/180 109/151/183
s 5
f 135/177/181 137/179/184 138/180/185 136/178/182
s 4
f 68/111/135 67/110/133 109/151/183 110/152/186
s 5
f 137/179/184 139/181/187 140/182/188 138/180/185
s 4
f 69/112/137 68/111/135 110/152/186 111/153/189
s 5
f 139/181/187 141/183/190 142/184/191 140/182/188
s 4
f 70/113/139 69/112/137 111/153/189 112/154/192
s 5
f 141/183/190 143/185/193 144/186/194 142/184/191
s 4
f 71/114/141 70/113/139 112/154/192 113/155/195
s 5
f 143/185/193 145/187/196 146/188/197 144/186/194
s 4
f 72/115/143 71/114/141 113/155/195 114/156/198
s 5
f 145/187/196 147/189/199 148/190/200 146/188/197
s 4
f 73/116/145 72/115/143 114/156/198 115/157/201
s 5
f 147/189/199 149/191/202 150/192/203 148/190/200
s 4
f 74/117/147 73/116/145 115/157/201 116/158/204
s 5
f 149/191/202 151/193/205 152/194/206 150/192/203
s 4
f 75/118/149 74/117/147 116/158/204 117/159/207
s 5
f 151/193/205 153/195/208 154/196/209 152/194/206
s 4
f 76/119/151 75/118/149 117/159/207 118/160/210
s 5
f 153/195/208 155/197/211 156/198/212 154/196/209
s 4
f 77/120/153 76/119/151 118/160/210 119/161/213
s 5
f 155/197/211 157/199/214 158/200/215 156/198/212
s 4
f 78/121/155 77/120/153 119/161/213 120/162/216
s 5
f 157/199/214 159/201/217 160/202/218 158/200/215
s 4
f 79/122/157 78/121/155 120/162/216 121/163/219
s 5
f 159/201/217 161/203/220 162/204/221 160/202/218
s 4
f 80/123/159 79/122/157 121/163/219 122/164/222
s 5
f 161/203/220 123/165/163 126/168/166 162/204/221
s 4
f 81/124/161 80/123/159 122/164/222 104/146/167
s 1
f 40/82/40 21/81/4 124/166/223 123/165/224
f 21/81/4 22/80/3 127/169/225 124/166/223
f 22/80/3 23/79/6 129/171/226 127/169/225
f 23/79/6 24/78/8 131/173/227 129/171/226
f 24/78/8 25/77/10 133/175/228 131/173/227
f 25/77/10 26/76/12 135/177/229 133/175/228
f 26/76/12 27/75/14 137/179/230 135/177/229
f 27/75/14 28/74/16 139/181/231 137/179/230
f 28/74/16 29/73/18 141/183/232 139/181/231
f 29/73/18 30/72/20 143/185/233 141/183/232
f 30/72/20 31/71/22 145/187/234 143/185/233
f 31/71/22 32/70/24 147/189/235 145/187/234
f 32/70/24 33/69/26 149/191/236 147/189/235
f 33/69/26 34/68/28 151/193/237 149/191/236
f 34/68/28 35/67/30 153/195/238 151/193/237
f 35/67/30 36/66/32 155/197/239 153/195/238
f 36/66/32 37/65/34 157/199/240 155/197/239
f 37/65/34 38/64/36 159/201/241 157/199/240
f 38/64/36 39/63/38 161/203/242 159/201/241
f 39/63/38 40/82/40 123/165/224 161/203/242
